<svg xmlns="http://www.w3.org/2000/svg" width="15" height="19.605" viewBox="0 0 15 19.605">
    <path stroke="#000" stroke-width="0.5px" d="M311.5 39.641c-.4-.057-.773-.107-1.154-.174a8 8 0 0 1-2.723-.887 1.715 1.715 0 0 1-.857-.944.593.593 0 0 1 .1-.616c.351-.421.677-.857 1.018-1.292a4.266 4.266 0 0 0 .925-2.742c0-1.072-.024-2.15.019-3.222a4.774 4.774 0 0 1 2.021-3.777 12.739 12.739 0 0 1 1.229-.728 1.822 1.822 0 0 1 .9-1.829 1.885 1.885 0 0 1 2.136.107 1.812 1.812 0 0 1 .74 1.766c.142.063.3.122.454.2a4.986 4.986 0 0 1 2.824 4.544c.026.964.018 1.929 0 2.9a4.358 4.358 0 0 0 1.037 2.936q.476.579.925 1.185a.677.677 0 0 1-.033.759 1.881 1.881 0 0 1-.75.721 7.072 7.072 0 0 1-2.282.81c-.536.107-1.081.185-1.62.276a2.446 2.446 0 0 1-2.414 2.58 2.482 2.482 0 0 1-2.489-2.572zm8.816-2.2c-.208-.26-.4-.527-.618-.773a5.493 5.493 0 0 1-1.423-4.009c.032-.857 0-1.707 0-2.572a4.072 4.072 0 0 0-1.227-3.024 4.3 4.3 0 0 0-4.256-1.072 4.058 4.058 0 0 0-3.114 3.938c-.019 1.031 0 2.065 0 3.1a5.01 5.01 0 0 1-1.035 3.118c-.332.436-.676.864-1.037 1.326a2.016 2.016 0 0 0 .372.321 8.1 8.1 0 0 0 1.124.5 14.4 14.4 0 0 0 3.858.609 20.826 20.826 0 0 0 4-.183 9.191 9.191 0 0 0 2.766-.777 1.33 1.33 0 0 0 .59-.5zm-7.94 2.3a1.545 1.545 0 0 0 .791 1.393 1.486 1.486 0 0 0 1.7-.059 1.522 1.522 0 0 0 .693-1.335zm.541-14.7c.356-.012.7-.033 1.044-.033s.7.021 1.045.033A1.014 1.014 0 0 0 314 23.982a1.03 1.03 0 0 0-1.079 1.065z" transform="translate(-306.461 -22.859)"/>
</svg>
