<svg xmlns="http://www.w3.org/2000/svg" width="14.453" height="14.498" viewBox="0 0 14.453 14.498">
    <path stroke="#000" stroke-width="0.8px" d="M307.39 454.162a5.519 5.519 0 0 1 1.185-3.413 5.626 5.626 0 0 1 2-1.624 5.492 5.492 0 0 1 1.46-.474 5.369 5.369 0 0 1 1.585-.051 5.492 5.492 0 0 1 2.192.746 5.676 5.676 0 0 1 2.176 2.329 5.454 5.454 0 0 1 .52 1.568 5.309 5.309 0 0 1 .051 1.489 5.556 5.556 0 0 1-1.185 2.886q-.088.114-.186.219c-.052.054-.054.088 0 .144q.723.711 1.439 1.434l2.31 2.3a.289.289 0 0 1 .015.436.271.271 0 0 1-.382-.028c-.262-.259-.52-.52-.781-.78l-2.972-2.971c-.08-.08-.08-.08-.161-.006a5.555 5.555 0 0 1-2 1.135 5.294 5.294 0 0 1-1.923.255 5.517 5.517 0 0 1-3.145-1.174 5.636 5.636 0 0 1-1.754-2.27 5.335 5.335 0 0 1-.347-1.152 5.519 5.519 0 0 1-.1-1zm.547-.007a5.055 5.055 0 1 0 5.055-5.047 5 5 0 0 0-5.055 5.047z" opacity="0.43" transform="translate(-306.99 -448.163)"/>
</svg>
